<?xml version="1.0" encoding="iso-8859-1"?>
<!-- Uploaded to: SVG Repo, www.svgrepo.com, Generator: SVG Repo Mixer Tools -->
<svg fill="#000000" version="1.1" id="Capa_1" xmlns="http://www.w3.org/2000/svg" xmlns:xlink="http://www.w3.org/1999/xlink" 
	 viewBox="0 0 60 60" xml:space="preserve">
<g>
	<g>
		<path d="M31,50h24c0.6,0,1-0.4,1-1V33V17V1c0-0.6-0.4-1-1-1H5C4.4,0,4,0.4,4,1v16v16v16c0,0.6,0.4,1,1,1h24v8H0v2h29h2h29v-2H31
			V50z M6,2h48v14H6V2z M6,18h48v14H6V18z M6,48V34h48v14H6z"/>
		<rect x="58" y="53" width="2" height="2"/>
		<rect x="54" y="53" width="2" height="2"/>
		<rect x="50" y="53" width="2" height="2"/>
		<rect x="46" y="53" width="2" height="2"/>
		<rect x="42" y="53" width="2" height="2"/>
		<rect x="38" y="53" width="2" height="2"/>
		<rect x="34" y="53" width="2" height="2"/>
		<rect x="24" y="53" width="2" height="2"/>
		<rect x="20" y="53" width="2" height="2"/>
		<rect x="16" y="53" width="2" height="2"/>
		<rect x="12" y="53" width="2" height="2"/>
		<rect x="8" y="53" width="2" height="2"/>
		<rect x="4" y="53" width="2" height="2"/>
		<rect y="53" width="2" height="2"/>
		<rect x="8" y="4" width="2" height="10"/>
		<rect x="22" y="4" width="2" height="10"/>
		<rect x="8" y="20" width="2" height="10"/>
		<rect x="22" y="20" width="2" height="10"/>
		<rect x="8" y="36" width="2" height="10"/>
		<rect x="22" y="36" width="2" height="10"/>
		<rect x="12" y="4" width="8" height="2"/>
		<rect x="12" y="8" width="8" height="2"/>
		<rect x="12" y="12" width="8" height="2"/>
		<rect x="12" y="20" width="8" height="2"/>
		<rect x="12" y="24" width="8" height="2"/>
		<rect x="12" y="28" width="8" height="2"/>
		<rect x="12" y="36" width="8" height="2"/>
		<rect x="12" y="40" width="8" height="2"/>
		<rect x="12" y="44" width="8" height="2"/>
		<rect x="36" y="4" width="2" height="10"/>
		<rect x="36" y="20" width="2" height="10"/>
		<rect x="36" y="36" width="2" height="10"/>
		<rect x="26" y="4" width="8" height="2"/>
		<rect x="26" y="8" width="8" height="2"/>
		<rect x="26" y="12" width="8" height="2"/>
		<rect x="26" y="20" width="8" height="2"/>
		<rect x="26" y="24" width="8" height="2"/>
		<rect x="26" y="28" width="8" height="2"/>
		<rect x="26" y="36" width="8" height="2"/>
		<rect x="26" y="40" width="8" height="2"/>
		<rect x="26" y="44" width="8" height="2"/>
		<path d="M46,4c-2.8,0-5,2.2-5,5s2.2,5,5,5s5-2.2,5-5S48.8,4,46,4z M46,12c-1.7,0-3-1.3-3-3s1.3-3,3-3s3,1.3,3,3S47.7,12,46,12z"/>
		<path d="M46,20c-2.8,0-5,2.2-5,5s2.2,5,5,5s5-2.2,5-5S48.8,20,46,20z M46,28c-1.7,0-3-1.3-3-3s1.3-3,3-3s3,1.3,3,3S47.7,28,46,28z
			"/>
		<path d="M46,36c-2.8,0-5,2.2-5,5s2.2,5,5,5s5-2.2,5-5S48.8,36,46,36z M46,44c-1.7,0-3-1.3-3-3s1.3-3,3-3s3,1.3,3,3S47.7,44,46,44z
			"/>
		<rect x="45" y="8" width="2" height="2"/>
		<rect x="45" y="24" width="2" height="2"/>
		<rect x="45" y="40" width="2" height="2"/>
	</g>
</g>
</svg>